<?xml version="1.0" ?><svg xmlns="http://www.w3.org/2000/svg" viewBox="0 0 32 32"><g id="_12_user-circle" data-name="12 user-circle"><path d="M16,20a6,6,0,1,0-6-6A6,6,0,0,0,16,20Zm0-10a4,4,0,1,1-4,4A4,4,0,0,1,16,10Z"/><path d="M25.47,24.9A13,13,0,1,0,3,16a12.89,12.89,0,0,0,3.53,8.9l0,0,.7.65A13,13,0,0,0,16,29c.41,0,.81,0,1.22-.06a13,13,0,0,0,7.58-3.35h0l.7-.64ZM16,5a11,11,0,0,1,8.13,18.41A9,9,0,0,0,18,21H14a9,9,0,0,0-6.13,2.41A11,11,0,0,1,16,5ZM15,27l-.32,0-.64-.09-.37-.08-.57-.13-.37-.11-.55-.18-.37-.15L11.32,26,11,25.79l-.54-.3-.29-.18c-.25-.15-.49-.32-.72-.49l-.07-.05A7,7,0,0,1,14,23h4a7,7,0,0,1,4.65,1.77h0q-.37.28-.78.54l-.27.15-.56.32-.34.16-.54.24-.36.13-.55.19-.37.11-.58.13-.36.08-.64.09L17,27c-.32,0-.64,0-1,0S15.35,27,15,27Z"/></g></svg>