<svg 
    id="Layer_1" 
    data-name="Layer 1"
    xmlns="http://www.w3.org/2000/svg" 
    viewBox="0 0 63.96 79.95"
    fill={fillColor}
 >
 <path d="M961.09,549c7.17,0,14.34-.06,21.5,0,7,.07,10.4,3.66,10.39,10.55s-3.56,11.69-9,15.2c-9,5.78-19,7-29.3,5.77-6.35-.73-12.4-2.55-17.63-6.43-4.94-3.66-8.09-8.3-8-14.73.07-6.65,3.44-10.27,10.07-10.36C946.43,549,953.76,549,961.09,549Z" transform="translate(-929.02 -501.04)"/><path d="M981,520.91A20,20,0,1,1,960.79,501,20.09,20.09,0,0,1,981,520.91Z" transform="translate(-929.02 -501.04)"/>
 </svg>